<svg xmlns="http://www.w3.org/2000/svg" xmlns:xlink="http://www.w3.org/1999/xlink" width="820" height="73.172" viewBox="0 0 820 73.172">
  <defs>
    <clipPath id="clip-path">
      <rect id="Rectángulo_44726" data-name="Rectángulo 44726" width="134.354" height="71.672" fill="#7d5f54"/>
    </clipPath>
  </defs>
  <g id="Grupo_156805" data-name="Grupo 156805" transform="translate(-390.5 -835.691)">
    <g id="Grupo_156785" data-name="Grupo 156785">
      <g id="Grupo_156784" data-name="Grupo 156784" transform="translate(733 835.691)">
        <g id="Grupo_156783" data-name="Grupo 156783" clip-path="url(#clip-path)">
          <path id="Trazado_601905" data-name="Trazado 601905" d="M773.974,153.078l8.566-7.525a2.841,2.841,0,0,0,.045-4.222,67.574,67.574,0,0,0-7.066-5.705,2.841,2.841,0,0,0-4.108.912l-5.626,9.9a2.838,2.838,0,0,0,.794,3.691q1.888,1.385,3.639,2.937a2.838,2.838,0,0,0,3.756.012" transform="translate(-669.695 -118.209)" fill="#7d5f54"/>
          <path id="Trazado_601906" data-name="Trazado 601906" d="M677.331,89.487l6.22-9.544a2.832,2.832,0,0,0-1.035-4.049,66.887,66.887,0,0,0-8.619-3.817,2.832,2.832,0,0,0-3.7,2l-2.721,11.1a2.831,2.831,0,0,0,1.742,3.312q2.286.883,4.461,1.978a2.837,2.837,0,0,0,3.655-.982" transform="translate(-583.932 -62.917)" fill="#7d5f54"/>
          <path id="Trazado_601907" data-name="Trazado 601907" d="M937.31,481.113h11.349a2.834,2.834,0,0,0,2.833-2.985,67.565,67.565,0,0,0-.9-7.83,2.832,2.832,0,0,0-3.465-2.254L936.1,470.738a2.84,2.84,0,0,0-2.126,3.211q.353,2.224.508,4.509a2.84,2.84,0,0,0,2.83,2.655" transform="translate(-817.142 -409.442)" fill="#7d5f54"/>
          <path id="Trazado_601908" data-name="Trazado 601908" d="M907.32,354.506l11.266-2.034a2.841,2.841,0,0,0,2.2-3.644,66.81,66.81,0,0,0-3.367-8.675,2.833,2.833,0,0,0-3.951-1.253l-9.914,5.573a2.839,2.839,0,0,0-1.194,3.642q.984,2.192,1.762,4.492a2.843,2.843,0,0,0,3.2,1.9" transform="translate(-789.297 -296.199)" fill="#7d5f54"/>
          <path id="Trazado_601909" data-name="Trazado 601909" d="M851.952,243.361l10.268-4.976a2.84,2.84,0,0,0,1.155-4.079,67.5,67.5,0,0,0-5.28-7.236,2.841,2.841,0,0,0-4.182-.2l-8.076,8.015a2.84,2.84,0,0,0-.2,3.8q1.441,1.782,2.719,3.7a2.837,2.837,0,0,0,3.6.98" transform="translate(-739.329 -197.778)" fill="#7d5f54"/>
          <path id="Trazado_601910" data-name="Trazado 601910" d="M187.648,140.878l-5.622-9.9a2.833,2.833,0,0,0-4.044-.957,67.592,67.592,0,0,0-7.412,5.8,2.841,2.841,0,0,0,.017,4.248l8.588,7.546a2.835,2.835,0,0,0,3.716.023q1.886-1.617,3.928-3.046a2.831,2.831,0,0,0,.829-3.718" transform="translate(-148.412 -113.344)" fill="#7d5f54"/>
          <path id="Trazado_601911" data-name="Trazado 601911" d="M17.016,476.266q.166-2.46.564-4.852a2.832,2.832,0,0,0-2.127-3.208L4.423,465.512A2.833,2.833,0,0,0,.96,467.755,67.545,67.545,0,0,0,0,475.909,2.835,2.835,0,0,0,2.838,478.9H14.187a2.831,2.831,0,0,0,2.829-2.631" transform="translate(0 -407.226)" fill="#7d5f54"/>
          <path id="Trazado_601912" data-name="Trazado 601912" d="M39.961,339.6l-9.908-5.571a2.834,2.834,0,0,0-3.942,1.232,66.81,66.81,0,0,0-3.59,9.1,2.832,2.832,0,0,0,2.208,3.622L36,350.015a2.84,2.84,0,0,0,3.191-1.883,49.992,49.992,0,0,1,1.96-4.88,2.83,2.83,0,0,0-1.189-3.653" transform="translate(-19.592 -291.937)" fill="#7d5f54"/>
          <path id="Trazado_601913" data-name="Trazado 601913" d="M99.738,229.016l-8.059-8a2.833,2.833,0,0,0-4.136.148,67.5,67.5,0,0,0-5.619,7.49,2.841,2.841,0,0,0,1.138,4.1l10.28,4.983a2.843,2.843,0,0,0,3.585-.961q1.395-2.035,2.98-3.922a2.838,2.838,0,0,0-.169-3.841" transform="translate(-71.277 -192.654)" fill="#7d5f54"/>
          <path id="Trazado_601914" data-name="Trazado 601914" d="M299.012,81.728l-2.7-11.042a2.834,2.834,0,0,0-3.649-2.018,66.844,66.844,0,0,0-8.866,3.711,2.832,2.832,0,0,0-1.081,4.072l6.226,9.554a2.844,2.844,0,0,0,3.609,1.006,49.979,49.979,0,0,1,4.676-1.938,2.833,2.833,0,0,0,1.789-3.346" transform="translate(-246.953 -59.951)" fill="#7d5f54"/>
          <path id="Trazado_601915" data-name="Trazado 601915" d="M435.571,5.427l-4.931,15.866a2.84,2.84,0,0,1-3.284,1.935,50.79,50.79,0,0,0-18.923-.234,2.843,2.843,0,0,1-3.222-1.949l-4.937-15.9a2.84,2.84,0,0,1,2.14-3.621,73.14,73.14,0,0,1,31.092.3,2.833,2.833,0,0,1,2.065,3.6" transform="translate(-350.105 0)" fill="#7d5f54"/>
          <path id="Trazado_601916" data-name="Trazado 601916" d="M640.716,351.316c.823,1.247,1.246,3.975.032,5.339-1.148-1.164-1.2-3.875-.032-5.339" transform="translate(-559.846 -307.382)" fill="#fd7f23"/>
          <path id="Trazado_601917" data-name="Trazado 601917" d="M522.672,251.657a6.454,6.454,0,0,1-1.3-3.559c0-1.946.6-2.2,1.064-3.559a4.391,4.391,0,0,0-.366-3.559,7.467,7.467,0,0,1,.6,10.678" transform="translate(-456.174 -210.843)" fill="#fd7f23"/>
          <path id="Trazado_601918" data-name="Trazado 601918" d="M330.056,361.94a3.269,3.269,0,0,0,.067-3.576,2.783,2.783,0,0,0-.067,3.576" transform="translate(-288.24 -313.549)" fill="#fd7f23"/>
          <path id="Trazado_601919" data-name="Trazado 601919" d="M293.81,331.37c-11.354-1.331-11.964-9.968-9.07-16.5-3.094,1.142-4.689,4.014-5.573,7.137a5.246,5.246,0,0,0-2.828-4.1c1.632,1.569,1.664,6.415-.052,6.739-2.164.407-2.052-2.151-2.052-2.546,0-5.129-3.494-9.148-4.558-9.758,1.131,3.6.066,8.494-2.987,12.319a24.05,24.05,0,0,0-.872-6.52c-1.076-4.148-2.511-5.637-3.415-8.993a15.244,15.244,0,0,1,.266-9.4,16.385,16.385,0,0,0-6.73,9.68,8.2,8.2,0,0,0-5.422-4,9.4,9.4,0,0,1,1.952,7.895c-.821,2.855-3.873,3.367-3.46-1.331.41-4.657-2.85-12.208-10-15.069,4.225,6.22,2.329,17.231.244,20.657-2.314,3.8-5.6,3.593-6.564.067-.615-2.246.765-7.684,4.424-11.177-7.418,3.46-8.682,8.882-9.214,15.191-1.132-2.809-3.094-5.644-6.187-6.786,2.894,6.531,2.284,15.169-9.07,16.5,18.451.177,76.707.043,81.17,0" transform="translate(-186.048 -259.788)" fill="#fd7f23"/>
        </g>
      </g>
      <path id="Trazado_601904" data-name="Trazado 601904" d="M-4020-10779.637h820" transform="translate(4410.5 11687)" fill="none" stroke="#7d5f54" stroke-width="3"/>
      <g id="cacao" transform="translate(869.823 853.464)">
        <path id="Trazado_601920" data-name="Trazado 601920" d="M52.949,86.987a90.754,90.754,0,0,0-11.921-15.4c-4.328-4.328-14.786-12.9-20.486-15.15,6.7-4.7,20.76,3.469,26.463,9.173,5.758,5.758,12.916,20.19,10.35,28.437C56.041,91.759,54.214,89.093,52.949,86.987Z" transform="translate(-12.005 -49.662)" fill="#b69634"/>
        <path id="Trazado_601921" data-name="Trazado 601921" d="M49.041,11.359l-2.7-2.869a5.676,5.676,0,0,1-.055-8,1.592,1.592,0,0,1,2.224-.07,1.562,1.562,0,0,1,.027,2.236,2.558,2.558,0,0,0,.058,3.672,17.6,17.6,0,0,0,5.091,4.114C58.915,13.2,67.348,20,71.478,24.134a88.082,88.082,0,0,1,9.281,11.431c1.7,2.48,1.754,2.78,4.085,6.413A56.756,56.756,0,0,1,88.2,47.634c-.029.032-.06.063-.09.095C82.677,45.8,69.374,36.311,64.337,31.275A97.425,97.425,0,0,1,55.56,21.057a1.562,1.562,0,1,0-2.518,1.849,99.256,99.256,0,0,0,9.086,10.577C66.9,38.256,78.08,46.353,84.616,49.607c-7.587,1.724-22.787-4.468-28.465-10.146-7.206-7.206-15.694-22.121-7.11-28.1Z" transform="translate(-44.663 -0.001)" fill="#b69634"/>
      </g>
      <g id="cacao-2" data-name="cacao" transform="translate(684.129 853.464)">
        <path id="Trazado_601920-2" data-name="Trazado 601920" d="M25.485,86.987a90.755,90.755,0,0,1,11.921-15.4c4.328-4.328,14.786-12.9,20.486-15.15-6.7-4.7-20.76,3.469-26.463,9.173-5.758,5.758-12.916,20.19-10.35,28.438C22.394,91.759,24.221,89.094,25.485,86.987Z" transform="translate(-20.542 -49.663)" fill="#b69634"/>
        <path id="Trazado_601921-2" data-name="Trazado 601921" d="M83.818,11.36l2.7-2.869a5.676,5.676,0,0,0,.055-8A1.592,1.592,0,0,0,84.35.421a1.562,1.562,0,0,0-.027,2.236,2.558,2.558,0,0,1-.058,3.672,17.6,17.6,0,0,1-5.091,4.114C73.944,13.2,65.511,20,61.381,24.134A88.083,88.083,0,0,0,52.1,35.565c-1.7,2.48-1.754,2.78-4.085,6.413a56.756,56.756,0,0,0-3.352,5.656c.029.032.06.063.09.095C50.182,45.8,63.485,36.311,68.522,31.275A97.426,97.426,0,0,0,77.3,21.058a1.562,1.562,0,1,1,2.518,1.849,99.257,99.257,0,0,1-9.086,10.577c-4.772,4.772-15.952,12.869-22.488,16.123,7.587,1.724,22.787-4.468,28.465-10.146,7.206-7.206,15.694-22.121,7.11-28.1Z" transform="translate(-42.308 -0.001)" fill="#b69634"/>
      </g>
      <g id="olla" transform="translate(876.733 825.001)">
        <path id="Trazado_601926" data-name="Trazado 601926" d="M86.878,330H14.258a5.975,5.975,0,0,0-5.968,5.968v6.252a5.975,5.975,0,0,0,5.968,5.968h4.878v3.487a9.4,9.4,0,0,0,9.387,9.387H72.711a9.4,9.4,0,0,0,9.387-9.387v-3.487h4.78a5.975,5.975,0,0,0,5.968-5.968v-6.252A5.975,5.975,0,0,0,86.878,330Zm.848,12.221a.849.849,0,0,1-.848.848h-4.8V335.12h4.8a.849.849,0,0,1,.848.848Zm-68.664.848h-4.8a.849.849,0,0,1-.848-.848v-6.252a.849.849,0,0,1,.848-.848h4.8v7.948Z" transform="translate(39.421 -279.063)" fill="#7d5f54"/>
      </g>
      <g id="olla-2" data-name="olla" transform="translate(541.289 825.001)">
        <path id="Trazado_601926-2" data-name="Trazado 601926" d="M86.878,330H14.258a5.975,5.975,0,0,0-5.968,5.968v6.252a5.975,5.975,0,0,0,5.968,5.968h4.878v3.487a9.4,9.4,0,0,0,9.387,9.387H72.711a9.4,9.4,0,0,0,9.387-9.387v-3.487h4.78a5.975,5.975,0,0,0,5.968-5.968v-6.252A5.975,5.975,0,0,0,86.878,330Zm.848,12.221a.849.849,0,0,1-.848.848h-4.8V335.12h4.8a.849.849,0,0,1,.848.848Zm-68.664.848h-4.8a.849.849,0,0,1-.848-.848v-6.252a.849.849,0,0,1,.848-.848h4.8v7.948Z" transform="translate(39.421 -279.063)" fill="#7d5f54"/>
      </g>
    </g>
    <path id="Trazado_601927" data-name="Trazado 601927" d="M-3390-10803.053h85" transform="translate(4410 11700)" fill="none" stroke="#fcc02d" stroke-width="2"/>
    <path id="Trazado_601928" data-name="Trazado 601928" d="M-3390-10803.053h85" transform="translate(3885 11700)" fill="none" stroke="#fcc02d" stroke-width="2"/>
  </g>
</svg>
